<svg id="icon_manifesto" version="1.1" viewBox="0 0 2.5 2.3" x="0px" xml:space="preserve" xmlns="http://www.w3.org/2000/svg" xmlns:xlink="http://www.w3.org/1999/xlink" y="0px">
        <g id="Layer_2_1_">
          <g id="Calque_1">
            <path class="st0" d="M0.7,0.8c0,0.2-0.1,0.4-0.4,0.4c0,0,0,0,0,0C0.1,1.2,0,1,0,0.8c0,0,0,0,0,0c0-0.2,0.2-0.4,0.4-0.4			C0.6,0.4,0.8,0.6,0.7,0.8z">
            </path>
            <polyline class="st0" points="0.6,0.9 0.6,0.7 1.2,0.8 0.6,0.9 		">
            </polyline>
            <path class="st0" d="M0.9,0.5C1,0.4,1,0.2,1,0c0.4,0.3,1,0.4,1.5,0.3c-0.1,0.8-0.4,1.5-0.9,2C1,2.2,0.5,2,0,1.8			C0.4,1.6,0.7,1.4,0.8,1l1-0.2L0.9,0.5z">
            </path>
          </g>
        </g>
      </svg>