<svg id="icon_ship_selection" style="enable-background:new 0 0 300 300;" viewBox="0 0 300 300" x="0px" xml:space="preserve" xmlns="http://www.w3.org/2000/svg" xmlns:xlink="http://www.w3.org/1999/xlink" y="0px">
        <polygon points="270.4,180.2 261.7,171.5 283.2,150 150.5,17.4 131.6,36.3 123,27.6 150.5,0 300.6,150 ">
        </polygon>
        <polygon points="150.5,300 0.5,150 41.2,109.3 49.9,118 17.9,150 150.5,282.7 197.1,236.2 205.7,244.9 ">
        </polygon>
        <path d="M140.2,163l-26.9,19.2l-4.8-7.2l-12-7.2l-7.5,3.7L95,196l23.1,17.5c0,0,28.6-15,62.6-9.6c22.9,3.6,55.4,26.5,69.9,16.9	c15.7-10.5-20.6-45.6-24.1-50.6c-4.6-6.6-10.7-22.5-3.6-35.6c0.2,0.9,1.2-5.3,1.2-5.3l-4.8-21.7l-14.5-9.6l-7.2,4.8v21.7L175,140.1	l-8.8-6.1c0,0-4.9-2-11.7,0.6c-9.9,3.7-16.2,13.7-15.2,24.2C139.6,161.5,140.2,163,140.2,163z">
        </path>
        <polygon points="166.3,99.7 96.7,35.7 96.9,35.5 178.5,83.2 ">
        </polygon>
        <polygon points="131,125.6 88.8,78.2 89,78 143.9,109.6 ">
        </polygon>
        <polygon points="94.4,147.6 36.5,75.4 36.7,75.3 108.9,133.1 ">
        </polygon>
      </svg>