<svg id="icon_time" style="enable-background:new 0 0 300 300;" viewBox="0 0 300 300" x="0px" xml:space="preserve" xmlns="http://www.w3.org/2000/svg" xmlns:xlink="http://www.w3.org/1999/xlink" y="0px">
        <path d="M55.9,83L32.2,59.3c8.4-8.4,17.9-15.8,28-22l17.4,28.7C69.8,70.7,62.5,76.4,55.9,83z">
        </path>
        <rect height="17" width="26.5" x="138" y="33">
        </rect>
        <rect height="26.5" width="71.1" x="115.7">
        </rect>
        <path d="M150.1,58.5c-66.4,0-120.1,53.8-120.1,120.1c0,66.4,53.8,120.1,120.1,120.1c66.4,0,120.1-53.8,120.1-120.1	C270.2,112.3,216.4,58.5,150.1,58.5z M150.1,190.8c-6.7,0-12.2-5.5-12.2-12.2s5.5-12.2,12.2-12.2s12.2,5.5,12.2,12.2	S156.8,190.8,150.1,190.8z M171.9,178.6C171.9,178.6,171.9,178.6,171.9,178.6c0-12-9.8-21.8-21.8-21.8h0V75.4	c57,0,103.2,46.2,103.2,103.2H171.9z">
        </path>
      </svg>